<?xml version="1.0" standalone="no"?>
<!DOCTYPE svg PUBLIC "-//W3C//DTD SVG 20010904//EN"
 "http://www.w3.org/TR/2001/REC-SVG-20010904/DTD/svg10.dtd">
<svg version="1.0" xmlns="http://www.w3.org/2000/svg"
 width="500.000000pt" height="500.000000pt" viewBox="0 0 500.000000 500.000000"
 preserveAspectRatio="xMidYMid meet">
<metadata>
Created by potrace 1.14, written by Peter Selinger 2001-2017
</metadata>
<g transform="translate(0.000000,500.000000) scale(0.100000,-0.100000)"
fill="#000000" stroke="none">
<path d="M882 3431 c-11 -7 -37 -81 -57 -161 -2 -8 -10 -40 -19 -70 -8 -30
-18 -66 -22 -80 -3 -14 -46 -173 -95 -355 -48 -181 -95 -355 -103 -385 -7 -30
-44 -165 -80 -300 -36 -135 -67 -256 -69 -270 -3 -20 -10 -26 -38 -28 -42 -4
-50 -17 -43 -67 14 -95 93 -205 155 -214 66 -10 308 -1 474 16 27 3 116 6 197
6 99 1 151 6 159 14 31 31 -63 185 -139 231 -41 24 -57 27 -132 27 -47 0 -116
-3 -155 -7 -215 -23 -198 -23 -190 3 4 13 34 120 65 239 32 118 115 429 185
690 114 423 127 480 121 528 -4 32 -16 68 -31 90 -27 40 -98 92 -126 92 -9 0
-23 2 -31 5 -7 3 -19 1 -26 -4z"/>
<path d="M4013 3415 c-242 -67 -417 -294 -563 -734 -92 -276 -128 -460 -128
-648 1 -358 171 -549 479 -537 108 4 167 18 264 64 156 75 278 231 360 462
l28 78 53 0 c104 0 126 28 85 108 -25 50 -58 78 -104 90 -35 10 -215 8 -262
-2 -11 -3 -97 -5 -192 -5 -162 -1 -173 -2 -183 -21 -8 -16 -6 -30 8 -63 40
-89 128 -140 234 -137 96 3 91 10 53 -83 -66 -155 -156 -261 -251 -294 -46
-16 -156 -9 -189 13 -31 20 -60 74 -76 141 -14 58 -13 233 0 311 6 31 13 75
16 97 4 22 11 58 17 80 5 22 11 47 13 55 13 68 106 357 140 435 84 194 174
320 267 373 48 28 68 34 148 46 61 9 91 -28 92 -114 1 -54 -11 -145 -22 -176
-5 -12 -7 -24 -4 -26 2 -3 -2 -24 -10 -46 -9 -23 -13 -42 -11 -42 3 0 0 -12
-6 -27 -20 -52 -20 -135 -2 -173 32 -61 145 -119 172 -87 30 37 123 298 146
412 14 67 13 208 -2 258 -27 93 -94 161 -182 188 -60 18 -328 21 -388 4z"/>
<path d="M2612 3406 c-43 -12 -118 -79 -141 -125 -10 -20 -44 -117 -76 -216
-52 -165 -169 -498 -200 -570 -7 -16 -29 -73 -50 -125 -50 -126 -206 -494
-212 -500 -5 -5 3 97 12 152 2 13 6 55 10 93 12 134 15 160 20 190 3 17 7 60
10 96 3 37 7 75 9 86 3 11 7 56 11 99 4 43 9 92 11 109 3 16 7 54 10 85 9 93
18 185 30 283 25 201 -21 296 -160 327 -76 17 -74 19 -96 -185 -10 -96 -15
-143 -25 -230 -2 -22 -7 -67 -10 -100 -3 -33 -8 -71 -10 -85 -4 -27 -17 -150
-20 -190 -6 -70 -18 -187 -20 -202 -2 -9 -6 -48 -10 -85 -3 -37 -8 -79 -10
-93 -2 -14 -7 -54 -10 -90 -3 -36 -8 -76 -10 -90 -2 -14 -7 -59 -11 -100 -3
-41 -8 -83 -9 -92 -13 -67 -16 -200 -5 -233 38 -116 191 -180 299 -126 61 32
83 67 201 326 67 148 228 522 315 733 21 51 39 91 40 90 2 -2 6 -50 10 -108 3
-58 8 -118 10 -135 4 -27 11 -107 20 -225 2 -25 7 -79 10 -120 4 -41 8 -95 9
-120 18 -258 28 -310 67 -355 17 -19 47 -39 67 -46 40 -13 191 -14 203 -2 4 5
73 211 154 458 81 248 180 554 222 680 41 127 92 284 114 350 65 196 63 267
-8 346 -36 40 -98 65 -131 55 -12 -4 -30 -44 -57 -129 -21 -67 -64 -201 -96
-297 -31 -96 -107 -330 -169 -520 -61 -190 -118 -361 -125 -380 l-14 -35 -2
45 c-1 25 -3 56 -4 70 -1 14 -5 81 -9 150 -4 69 -9 157 -11 195 -7 108 -14
210 -20 330 -4 61 -8 139 -10 175 -2 36 -7 119 -10 185 -8 151 -16 204 -33
206 -38 4 -51 4 -80 -5z"/>
</g>
</svg>
